<svg xmlns="http://www.w3.org/2000/svg" xmlns:xlink="http://www.w3.org/1999/xlink" id="visual" viewBox="0 0 900 450" width="900" height="450" version="1.1"><path d="M764 450L791 450L791 375L737 375L737 300L764 300L764 225L782 225L782 150L791 150L791 75L791 75L791 0L900 0L900 75L900 75L900 150L900 150L900 225L900 225L900 300L900 300L900 375L900 375L900 450L900 450Z" fill="#b0235f"/><path d="M746 450L773 450L773 375L710 375L710 300L710 300L710 225L737 225L737 150L773 150L773 75L764 75L764 0L792 0L792 75L792 75L792 150L783 150L783 225L765 225L765 300L738 300L738 375L792 375L792 450L765 450Z" fill="#b82a60"/><path d="M719 450L701 450L701 375L692 375L692 300L647 300L647 225L710 225L710 150L710 150L710 75L701 75L701 0L765 0L765 75L774 75L774 150L738 150L738 225L711 225L711 300L711 300L711 375L774 375L774 450L747 450Z" fill="#bf3161"/><path d="M701 450L674 450L674 375L638 375L638 300L629 300L629 225L674 225L674 150L665 150L665 75L665 75L665 0L702 0L702 75L711 75L711 150L711 150L711 225L648 225L648 300L693 300L693 375L702 375L702 450L720 450Z" fill="#c63862"/><path d="M647 450L575 450L575 375L575 375L575 300L584 300L584 225L593 225L593 150L575 150L575 75L566 75L566 0L666 0L666 75L666 75L666 150L675 150L675 225L630 225L630 300L639 300L639 375L675 375L675 450L702 450Z" fill="#ce3f63"/><path d="M629 450L548 450L548 375L557 375L557 300L548 300L548 225L566 225L566 150L530 150L530 75L530 75L530 0L567 0L567 75L576 75L576 150L594 150L594 225L585 225L585 300L576 300L576 375L576 375L576 450L648 450Z" fill="#d54664"/><path d="M611 450L485 450L485 375L494 375L494 300L503 300L503 225L548 225L548 150L485 150L485 75L476 75L476 0L531 0L531 75L531 75L531 150L567 150L567 225L549 225L549 300L558 300L558 375L549 375L549 450L630 450Z" fill="#db4e64"/><path d="M539 450L458 450L458 375L449 375L449 300L422 300L422 225L512 225L512 150L458 150L458 75L440 75L440 0L477 0L477 75L486 75L486 150L549 150L549 225L504 225L504 300L495 300L495 375L486 375L486 450L612 450Z" fill="#e25565"/><path d="M404 450L296 450L296 375L341 375L341 300L314 300L314 225L368 225L368 150L314 150L314 75L296 75L296 0L441 0L441 75L459 75L459 150L513 150L513 225L423 225L423 300L450 300L450 375L459 375L459 450L540 450Z" fill="#e85c66"/><path d="M341 450L233 450L233 375L296 375L296 300L269 300L269 225L314 225L314 150L278 150L278 75L251 75L251 0L297 0L297 75L315 75L315 150L369 150L369 225L315 225L315 300L342 300L342 375L297 375L297 450L405 450Z" fill="#ee6366"/><path d="M242 450L170 450L170 375L251 375L251 300L233 300L233 225L260 225L260 150L206 150L206 75L170 75L170 0L252 0L252 75L279 75L279 150L315 150L315 225L270 225L270 300L297 300L297 375L234 375L234 450L342 450Z" fill="#f46b67"/><path d="M0 450L0 450L0 375L0 375L0 300L0 300L0 225L0 225L0 150L0 150L0 75L0 75L0 0L171 0L171 75L207 75L207 150L261 150L261 225L234 225L234 300L252 300L252 375L171 375L171 450L243 450Z" fill="#fa7268"/></svg>