<svg xmlns="http://www.w3.org/2000/svg" version="1.0" width="300.000000pt" height="288.000000pt" viewBox="0 0 300.000000 288.000000" preserveAspectRatio="xMidYMid meet">
<metadata>
Created by potrace 1.10, written by Peter Selinger 2001-2011
</metadata>
<g transform="translate(0.000000,288.000000) scale(0.100000,-0.100000)" fill="#000000" stroke="none">
<path d="M1085 2530 c-27 -11 -93 -45 -145 -75 -52 -31 -140 -78 -195 -105 -109 -53 -170 -104 -181 -154 -6 -27 -8 -29 -15 -11 -5 13 -8 15 -8 5 -1 -8 -4 -26 -6 -40 -5 -22 -4 -22 4 -5 7 15 10 5 10 -42 1 -62 35 -173 81 -264 12 -22 19 -47 16 -55 -3 -8 -2 -12 3 -9 12 7 24 -31 15 -46 -5 -8 -3 -9 6 -4 10 6 12 4 7 -9 -4 -11 -3 -15 4 -10 7 4 9 0 5 -13 -3 -11 1 -27 10 -39 14 -18 15 -18 4 4 -7 13 -9 26 -6 30 3 3 14 -13 24 -36 19 -45 55 -59 88 -35 12 8 13 13 5 13 -33 0 19 243 66 315 29 43 62 73 102 92 l26 11 -26 1 c-49 2 -91 -38 -136 -129 -23 -47 -43 -96 -45 -110 -2 -14 -6 -27 -10 -30 -3 -3 -7 -25 -9 -50 -6 -97 -26 -94 -77 13 -87 180 -101 226 -99 331 2 73 6 89 32 132 27 43 44 55 145 109 63 33 142 77 175 97 166 100 238 118 351 88 53 -14 86 -17 121 -11 27 4 62 6 78 6 117 -6 193 -7 210 -2 95 29 104 29 177 13 55 -12 103 -34 193 -87 66 -39 156 -89 200 -111 44 -21 90 -49 102 -60 42 -39 62 -97 64 -188 2 -91 -12 -154 -52 -231 -13 -24 -23 -46 -24 -49 -2 -16 -31 -70 -37 -70 -5 0 -8 -9 -8 -20 0 -25 -34 -45 -48 -27 -5 6 -12 37 -15 67 -10 106 -28 159 -80 238 -27 39 -89 83 -119 82 -7 -1 4 -10 24 -20 68 -36 114 -118 142 -254 9 -43 16 -91 16 -106 0 -15 7 -33 15 -40 13 -11 13 -15 3 -21 -9 -6 -4 -9 15 -9 15 0 30 7 33 15 4 8 10 13 14 10 5 -3 12 0 16 6 4 8 3 9 -4 5 -17 -10 -16 -9 26 72 21 40 42 69 46 65 4 -4 4 1 0 11 -5 13 -4 17 4 12 6 -3 14 -1 18 5 4 8 3 9 -4 5 -7 -4 -12 -5 -12 -2 0 11 54 141 60 146 8 6 7 3 16 118 7 86 -5 151 -33 173 -7 6 -13 16 -13 22 0 5 10 2 22 -9 l23 -19 -19 22 c-10 13 -22 20 -26 18 -4 -3 -16 3 -27 13 -10 9 -12 13 -3 7 10 -6 8 -2 -4 13 -20 23 -32 30 -21 12 9 -15 2 -13 -62 16 -84 37 -214 115 -208 124 3 5 0 12 -6 16 -8 4 -9 3 -5 -4 11 -18 -5 -14 -51 12 -67 38 -150 66 -199 66 -45 0 -130 -17 -149 -29 -5 -4 -91 -6 -190 -6 -136 1 -193 6 -234 18 -71 22 -144 21 -206 -3z"/>
<path d="M1468 2533 c17 -2 47 -2 65 0 17 2 3 4 -33 4 -36 0 -50 -2 -32 -4z"/>
<path d="M1143 2476 c-23 -8 -86 -41 -140 -74 -54 -33 -138 -79 -186 -103 -116 -57 -170 -113 -187 -194 -9 -41 -9 -60 -1 -68 8 -8 11 -4 11 15 0 44 35 110 81 155 45 43 144 99 167 95 6 -2 12 2 12 7 0 5 10 13 23 17 12 3 40 19 61 35 22 16 46 29 53 29 7 0 13 3 13 8 0 10 114 72 133 72 9 0 19 5 22 10 8 13 -10 12 -62 -4z"/>
<path d="M1873 2470 c14 -11 30 -20 35 -20 10 0 89 -44 142 -80 14 -9 77 -42 141 -74 142 -71 190 -120 215 -218 21 -83 28 -87 21 -10 -9 113 -63 174 -214 244 -37 17 -104 54 -148 81 -114 72 -260 130 -192 77z"/>
<path d="M956 1999 c-57 -45 -97 -147 -116 -294 -5 -44 -13 -95 -16 -114 -5 -26 -4 -32 6 -26 10 6 12 2 8 -13 -4 -14 -2 -20 5 -15 6 4 8 -2 5 -15 -4 -14 -2 -20 5 -15 7 4 8 0 4 -11 -5 -11 -3 -15 5 -10 8 5 9 2 5 -9 -3 -10 -2 -17 3 -17 6 0 10 -9 10 -19 0 -11 4 -22 10 -26 5 -3 7 -12 3 -20 -3 -8 0 -15 7 -15 8 0 11 -16 9 -47 -2 -27 1 -59 5 -73 8 -25 84 -110 98 -110 4 0 8 26 7 58 -1 36 -3 48 -7 34 -4 -13 -11 -22 -17 -21 -15 2 -51 29 -40 29 6 0 3 5 -5 10 -13 9 -13 10 0 10 12 0 12 2 2 9 -7 4 -15 28 -17 52 -2 24 -22 94 -44 156 -34 97 -38 117 -30 148 6 19 8 39 6 43 -7 10 17 125 38 192 10 30 27 64 39 75 12 11 26 29 32 40 7 11 19 19 28 19 9 -1 13 2 10 7 -9 15 -30 10 -58 -12z"/>
<path d="M1239 2007 c-45 -13 -78 -33 -153 -92 l-38 -30 5 -75 c10 -138 50 -201 107 -170 24 13 22 3 -5 -30 -7 -8 -15 -24 -19 -35 -3 -12 24 9 67 50 92 90 170 125 298 133 149 8 277 -46 381 -161 33 -37 45 -46 41 -29 -3 12 -8 22 -12 22 -4 0 -15 14 -25 31 l-18 31 30 -16 c28 -14 32 -14 49 2 23 20 37 62 54 160 l12 73 -49 45 c-27 24 -73 56 -103 70 -104 50 -178 45 -241 -16 -37 -35 -41 -44 -44 -97 -3 -44 0 -61 13 -70 13 -10 3 -12 -57 -13 -69 0 -72 1 -62 19 26 50 0 135 -55 177 -43 32 -108 40 -176 21z m172 -56 c35 -35 39 -44 39 -89 l0 -50 -45 -6 c-63 -10 -193 -77 -240 -125 -22 -23 -43 -41 -46 -41 -5 0 -32 108 -45 183 -6 34 -3 41 30 71 57 55 150 96 214 96 50 0 58 -3 93 -39z m442 9 c72 -36 127 -87 127 -117 0 -35 -40 -203 -48 -203 -4 0 -23 16 -42 36 -50 52 -145 104 -223 123 l-69 16 5 54 c3 47 9 59 42 89 35 33 40 34 99 30 38 -2 79 -13 109 -28z"/>
<path d="M2084 1977 c26 -27 52 -67 64 -99 41 -109 54 -311 23 -364 -20 -35 -53 -148 -57 -194 -4 -44 -28 -90 -52 -98 -7 -2 -12 5 -12 15 0 10 -5 25 -10 33 -8 11 -10 -1 -8 -42 2 -46 6 -58 21 -62 11 -2 16 -2 13 1 -7 8 13 33 26 33 6 0 4 -8 -3 -17 -7 -10 -1 -7 14 6 28 25 38 43 12 21 -20 -17 -19 -7 5 32 12 21 20 51 20 80 0 26 5 50 10 53 6 3 10 15 10 26 0 11 4 18 9 15 5 -4 7 4 3 16 -4 16 -2 19 8 13 9 -5 11 -4 6 4 -9 14 2 53 14 46 4 -3 6 5 2 17 -3 13 -1 19 5 15 7 -5 9 1 6 15 -3 17 -2 19 5 9 22 -31 -20 258 -48 333 -24 63 -71 120 -108 131 -17 5 -13 -3 22 -38z"/>
<path d="M1459 1719 c-69 -10 -148 -41 -204 -79 -47 -32 -105 -94 -105 -113 0 -6 6 -2 14 9 8 11 34 33 58 50 24 16 45 32 48 35 3 3 22 13 43 23 20 9 52 23 70 31 40 17 157 28 157 14 0 -8 -22 -13 -43 -10 -4 1 -14 -4 -22 -11 -34 -30 -45 -38 -45 -32 0 4 -13 -7 -30 -24 -57 -60 -47 -113 26 -126 19 -4 34 -11 34 -16 0 -6 -19 -22 -42 -36 -55 -35 -61 -42 -88 -94 -19 -37 -23 -62 -25 -172 -3 -158 -2 -157 -127 -158 -80 0 -88 2 -100 23 -6 12 -12 40 -13 62 -5 155 -7 180 -15 150 -4 -16 -8 -81 -9 -142 l-1 -113 148 0 147 0 -3 145 c-3 133 -2 149 19 191 57 118 206 148 305 62 61 -54 66 -73 65 -244 l-1 -154 152 0 151 0 -7 132 c-4 73 -9 134 -11 137 -11 11 -14 -11 -16 -107 -1 -56 -5 -105 -10 -108 -5 -3 -7 -9 -4 -14 3 -5 -3 -11 -12 -13 -32 -9 -178 -7 -192 2 -11 7 -15 37 -16 118 -1 59 -6 126 -10 148 -11 55 -63 125 -113 153 -23 13 -42 27 -42 32 0 8 26 19 54 24 22 3 44 21 48 38 4 20 -42 97 -59 98 -14 0 -82 42 -83 51 -1 23 108 7 163 -23 12 -7 24 -13 27 -13 18 -4 60 -30 60 -37 0 -4 5 -8 10 -8 6 0 22 -12 35 -26 14 -15 25 -23 25 -18 1 5 7 -2 15 -16 8 -14 14 -19 15 -11 0 22 -102 117 -157 144 -86 44 -188 60 -284 46z m132 -98 c49 -31 92 -78 83 -92 -3 -5 -20 -9 -37 -9 -18 0 -41 -7 -51 -15 -25 -19 -95 -19 -120 0 -11 8 -35 15 -53 15 -18 0 -33 5 -33 10 0 37 100 120 145 120 12 0 41 -13 66 -29z"/>
<path d="M1470 1399 c-29 -12 -76 -55 -93 -84 -6 -11 -14 -77 -17 -147 l-5 -126 37 -13 c21 -6 35 -16 32 -21 -3 -5 6 -6 22 -2 17 5 25 3 21 -3 -5 -7 16 -11 58 -11 36 0 65 4 65 9 0 5 12 7 28 3 22 -4 24 -3 12 6 -12 10 -11 11 8 7 14 -3 20 -1 15 6 -4 7 0 8 11 4 10 -4 15 -3 11 3 -8 13 8 13 21 0 17 -17 0 251 -19 287 -37 71 -138 111 -207 82z m110 -30 c0 -5 6 -9 13 -9 20 0 53 -41 65 -80 16 -53 13 -190 -5 -218 -8 -13 -17 -21 -20 -18 -4 3 -11 1 -18 -4 -16 -13 -99 -16 -156 -6 -63 11 -79 40 -79 140 0 42 6 91 14 109 16 38 68 87 104 96 31 9 82 2 82 -10z"/>
<path d="M1035 885 c1 -86 7 -105 33 -104 12 0 11 3 -5 9 -13 5 -23 11 -23 12 0 2 57 2 127 0 179 -4 171 -8 172 85 l1 78 -153 0 -152 0 0 -80z m239 49 c24 -6 26 -11 26 -55 l0 -49 -45 0 c-48 0 -120 24 -146 50 -18 17 -30 46 -23 53 7 7 160 8 188 1z m-194 -44 c0 -25 6 -32 36 -45 20 -8 46 -15 57 -15 11 0 17 -3 13 -7 -11 -11 -110 -2 -118 10 -11 18 -10 87 2 87 6 0 10 -13 10 -30z"/>
<path d="M1722 880 l3 -85 145 0 145 0 3 85 3 85 -151 0 -151 0 3 -85z m243 50 c9 -15 -27 -70 -45 -70 -21 0 -61 -29 -41 -30 7 0 31 5 52 12 33 9 39 15 39 39 0 15 5 31 11 34 7 5 9 -9 7 -42 l-3 -48 -95 2 c-52 1 -103 2 -112 2 -20 1 -34 57 -23 90 6 19 14 21 105 21 55 0 102 -4 105 -10z"/>
<path d="M2010 704 c-173 -102 -231 -309 -107 -384 65 -40 156 -13 225 65 41 47 57 95 46 140 -6 25 -9 26 -67 23 -58 -3 -61 -4 -69 -33 -18 -63 -18 -65 8 -65 39 0 23 -25 -17 -26 -52 -1 -67 17 -59 72 11 71 83 123 151 109 23 -5 27 -2 39 37 8 24 18 48 23 55 17 23 -4 33 -66 33 -49 0 -72 -6 -107 -26z m125 -14 c13 -21 -6 -50 -33 -50 -42 0 -108 -38 -134 -78 -35 -52 -33 -117 4 -145 31 -23 74 -25 95 -4 12 12 13 21 5 45 -9 25 -7 33 7 46 36 33 75 7 62 -42 -9 -33 -57 -90 -92 -107 -76 -40 -146 -21 -173 45 -36 90 33 218 149 278 43 23 100 28 110 12z"/>
<path d="M947 693 c-3 -16 -30 -100 -61 -188 -31 -88 -58 -164 -59 -170 -1 -6 25 -11 58 -13 l60 -2 29 92 c56 179 65 198 92 198 34 0 29 -29 -8 -43 -9 -3 -21 -21 -26 -39 -6 -18 -13 -41 -17 -50 -6 -15 -2 -18 19 -18 41 0 27 -33 -19 -41 -12 -3 -25 -20 -36 -52 l-17 -47 43 0 c60 0 106 30 138 89 32 58 33 71 9 101 -18 23 -18 24 13 56 55 56 54 124 -1 144 -14 6 -67 10 -119 10 l-93 0 -5 -27z m213 -31 c15 -16 20 -27 12 -30 -7 -2 -12 -10 -12 -18 0 -8 -4 -14 -10 -14 -5 0 -16 -16 -26 -35 -12 -27 -14 -41 -6 -64 16 -45 -2 -97 -38 -116 -17 -9 -30 -20 -30 -25 0 -16 -27 -11 -34 6 -9 24 -7 41 3 25 7 -11 13 -9 30 8 24 24 27 63 7 84 -18 18 -9 60 10 53 8 -3 20 8 30 29 20 42 7 65 -36 65 -29 0 -40 -16 -60 -85 -21 -74 -20 -71 -31 -55 -8 12 -9 10 -4 -7 3 -12 2 -24 -3 -27 -6 -3 -13 -21 -16 -41 -7 -37 -29 -65 -51 -65 -16 0 -28 41 -15 54 6 6 10 18 10 28 0 9 6 32 14 50 20 45 28 69 33 93 2 10 7 22 12 25 5 3 12 20 16 37 10 47 32 59 106 55 54 -3 68 -8 89 -30z"/>
<path d="M1286 703 c-3 -10 -7 -22 -8 -28 -1 -5 -14 -46 -30 -90 -49 -133 -60 -176 -53 -203 9 -37 44 -61 91 -62 l40 0 21 60 c20 58 20 60 2 60 -26 0 -24 14 21 151 22 67 40 123 40 125 0 2 -27 4 -59 4 -48 0 -61 -3 -65 -17z m74 -31 c0 -9 -12 -53 -26 -97 -20 -65 -24 -91 -19 -138 7 -63 -3 -87 -36 -87 -10 0 -23 9 -29 20 -6 11 -16 18 -22 14 -7 -5 -9 2 -4 21 4 15 10 41 13 59 3 17 9 33 12 36 4 3 17 39 30 80 24 77 44 110 68 110 7 0 13 -8 13 -18z"/>
<path d="M1490 683 c-8 -21 -14 -40 -15 -43 0 -3 -4 -11 -8 -17 -5 -7 -10 -22 -13 -33 -2 -11 -6 -28 -8 -38 -2 -10 -12 -36 -21 -58 -9 -21 -19 -47 -21 -56 -2 -10 -6 -26 -8 -35 -2 -10 -9 -31 -15 -46 -6 -16 -11 -30 -11 -33 0 -2 26 -4 58 -4 l58 0 38 113 c56 165 63 179 83 174 10 -3 35 -8 56 -12 34 -5 37 -8 37 -41 0 -63 -40 -103 -115 -113 -36 -6 -40 -9 -57 -56 -10 -27 -18 -53 -18 -57 0 -5 23 -8 51 -8 91 0 192 67 237 156 53 107 49 162 -16 212 -33 25 -43 27 -156 30 l-121 4 -15 -39z m254 -8 c44 -21 69 -66 61 -108 -16 -75 -79 -153 -156 -193 -56 -29 -94 -27 -94 6 0 19 7 26 35 33 87 22 123 54 135 120 6 32 3 40 -23 67 -25 25 -39 30 -76 30 -37 0 -48 -4 -61 -24 -19 -29 -53 -119 -61 -160 -11 -61 -32 -96 -58 -96 -13 0 -26 5 -28 12 -4 11 55 194 66 206 3 3 6 13 6 22 0 21 30 82 44 92 21 14 176 9 210 -7z"/>
</g>
</svg>