<svg xmlns="http://www.w3.org/2000/svg" xmlns:xlink="http://www.w3.org/1999/xlink" id="visual" viewBox="0 0 1500 470" width="1500" height="470" version="1.1"><g stroke-width="1" stroke-linejoin="bevel"><path d="M754 269.6L808 317.7L800 237.7Z" fill="#1a1a1a" stroke="#1a1a1a"/><path d="M808 317.7L837 269.6L800 237.7Z" fill="#242424" stroke="#242424"/><path d="M754 269.6L767 389.7L808 317.7Z" fill="#1d1d1d" stroke="#1d1d1d"/><path d="M808 317.7L913 292.4L837 269.6Z" fill="#222222" stroke="#222222"/><path d="M923 304.7L913 292.4L808 317.7Z" fill="#272727" stroke="#272727"/><path d="M847 137.4L796 157.4L800 237.7Z" fill="#272727" stroke="#272727"/><path d="M913 292.4L914 274.4L837 269.6Z" fill="#1f1f1f" stroke="#1f1f1f"/><path d="M899 198.6L800 237.7L837 269.6Z" fill="#1f1f1f" stroke="#1f1f1f"/><path d="M800 237.7L721 163.3L754 269.6Z" fill="#242424" stroke="#242424"/><path d="M914 274.4L915 234.6L837 269.6Z" fill="#272727" stroke="#272727"/><path d="M848 470L923 304.7L808 317.7Z" fill="#272727" stroke="#272727"/><path d="M913 292.4L923 304.7L914 274.4Z" fill="#222222" stroke="#222222"/><path d="M914 274.4L1054 310.7L915 234.6Z" fill="#191919" stroke="#191919"/><path d="M915 234.6L899 198.6L837 269.6Z" fill="#1a1a1a" stroke="#1a1a1a"/><path d="M796 157.4L721 163.3L800 237.7Z" fill="#191919" stroke="#191919"/><path d="M754 269.6L658 363.9L767 389.7Z" fill="#171717" stroke="#171717"/><path d="M899 198.6L847 137.4L800 237.7Z" fill="#222222" stroke="#222222"/><path d="M772 81.1L689 141.4L721 163.3Z" fill="#212121" stroke="#212121"/><path d="M626 255.6L658 363.9L754 269.6Z" fill="#212121" stroke="#212121"/><path d="M658 363.9L714 421.9L767 389.7Z" fill="#1f1f1f" stroke="#1f1f1f"/><path d="M767 389.7L795 442.9L808 317.7Z" fill="#272727" stroke="#272727"/><path d="M714 421.9L795 442.9L767 389.7Z" fill="#1d1d1d" stroke="#1d1d1d"/><path d="M721 163.3L626 255.6L754 269.6Z" fill="#242424" stroke="#242424"/><path d="M772 81.1L721 163.3L796 157.4Z" fill="#1d1d1d" stroke="#1d1d1d"/><path d="M721 163.3L655 152.3L626 255.6Z" fill="#272727" stroke="#272727"/><path d="M800 470L810 454.9L795 442.9Z" fill="#171717" stroke="#171717"/><path d="M795 442.9L810 454.9L808 317.7Z" fill="#1f1f1f" stroke="#1f1f1f"/><path d="M689 141.4L655 152.3L721 163.3Z" fill="#1d1d1d" stroke="#1d1d1d"/><path d="M689 141.4L661 143.1L655 152.3Z" fill="#1d1d1d" stroke="#1d1d1d"/><path d="M714 421.9L800 470L795 442.9Z" fill="#222222" stroke="#222222"/><path d="M810 454.9L848 470L808 317.7Z" fill="#171717" stroke="#171717"/><path d="M800 470L836 470L810 454.9Z" fill="#1c1c1c" stroke="#1c1c1c"/><path d="M836 470L848 470L810 454.9Z" fill="#252525" stroke="#252525"/><path d="M847 137.4L772 81.1L796 157.4Z" fill="#1f1f1f" stroke="#1f1f1f"/><path d="M689 141.4L664 1.1L661 143.1Z" fill="#272727" stroke="#272727"/><path d="M569 241.7L598 320.6L626 255.6Z" fill="#242424" stroke="#242424"/><path d="M626 255.6L598 320.6L658 363.9Z" fill="#1c1c1c" stroke="#1c1c1c"/><path d="M658 363.9L602 470L714 421.9Z" fill="#222222" stroke="#222222"/><path d="M598 182.3L601 213.3L655 152.3Z" fill="#212121" stroke="#212121"/><path d="M655 152.3L601 213.3L626 255.6Z" fill="#1f1f1f" stroke="#1f1f1f"/><path d="M899 198.6L953 133.1L847 137.4Z" fill="#242424" stroke="#242424"/><path d="M837 36.1L761 58.3L772 81.1Z" fill="#212121" stroke="#212121"/><path d="M915 234.6L953 133.1L899 198.6Z" fill="#242424" stroke="#242424"/><path d="M1075 270.6L953 133.1L915 234.6Z" fill="#1c1c1c" stroke="#1c1c1c"/><path d="M661 143.1L598 182.3L655 152.3Z" fill="#272727" stroke="#272727"/><path d="M601 213.3L569 241.7L626 255.6Z" fill="#242424" stroke="#242424"/><path d="M837 36.1L772 81.1L847 137.4Z" fill="#212121" stroke="#212121"/><path d="M772 81.1L761 58.3L689 141.4Z" fill="#222222" stroke="#222222"/><path d="M557 186.4L589 186.4L598 182.3Z" fill="#1f1f1f" stroke="#1f1f1f"/><path d="M557 186.4L598 182.3L582 28.1Z" fill="#191919" stroke="#191919"/><path d="M598 182.3L589 186.4L601 213.3Z" fill="#242424" stroke="#242424"/><path d="M848 470L917 470L923 304.7Z" fill="#272727" stroke="#272727"/><path d="M923 304.7L1054 310.7L914 274.4Z" fill="#272727" stroke="#272727"/><path d="M557 186.4L569 241.7L601 213.3Z" fill="#1c1c1c" stroke="#1c1c1c"/><path d="M992 426.7L1022 357.7L923 304.7Z" fill="#1a1a1a" stroke="#1a1a1a"/><path d="M901 43.3L837 36.1L847 137.4Z" fill="#252525" stroke="#252525"/><path d="M917 470L992 426.7L923 304.7Z" fill="#212121" stroke="#212121"/><path d="M569 241.7L550 314.7L598 320.6Z" fill="#212121" stroke="#212121"/><path d="M598 320.6L602 470L658 363.9Z" fill="#1f1f1f" stroke="#1f1f1f"/><path d="M1040 80.3L968 100.1L953 133.1Z" fill="#1a1a1a" stroke="#1a1a1a"/><path d="M953 133.1L907 48.1L847 137.4Z" fill="#242424" stroke="#242424"/><path d="M968 100.1L962 93.3L953 133.1Z" fill="#191919" stroke="#191919"/><path d="M589 186.4L557 186.4L601 213.3Z" fill="#1d1d1d" stroke="#1d1d1d"/><path d="M569 241.7L455 293.6L550 314.7Z" fill="#212121" stroke="#212121"/><path d="M582 28.1L598 182.3L661 143.1Z" fill="#171717" stroke="#171717"/><path d="M962 93.3L907 48.1L953 133.1Z" fill="#1d1d1d" stroke="#1d1d1d"/><path d="M907 48.1L901 43.3L847 137.4Z" fill="#272727" stroke="#272727"/><path d="M1108 281.6L1054 310.7L1103 429.9Z" fill="#212121" stroke="#212121"/><path d="M1022 357.7L1054 310.7L923 304.7Z" fill="#222222" stroke="#222222"/><path d="M917 470L981 465.9L992 426.7Z" fill="#171717" stroke="#171717"/><path d="M992 426.7L1103 429.9L1022 357.7Z" fill="#171717" stroke="#171717"/><path d="M506 388.9L602 470L598 320.6Z" fill="#252525" stroke="#252525"/><path d="M714 421.9L602 470L800 470Z" fill="#1a1a1a" stroke="#1a1a1a"/><path d="M1108 281.6L1075 270.6L1054 310.7Z" fill="#222222" stroke="#222222"/><path d="M1054 310.7L1075 270.6L915 234.6Z" fill="#212121" stroke="#212121"/><path d="M912 0L901 43.3L907 48.1Z" fill="#1f1f1f" stroke="#1f1f1f"/><path d="M912 0L881 0L901 43.3Z" fill="#1c1c1c" stroke="#1c1c1c"/><path d="M901 43.3L881 0L837 36.1Z" fill="#222222" stroke="#222222"/><path d="M837 36.1L705 0L761 58.3Z" fill="#191919" stroke="#191919"/><path d="M912 0L907 48.1L941 0Z" fill="#272727" stroke="#272727"/><path d="M881 0L705 0L837 36.1Z" fill="#1d1d1d" stroke="#1d1d1d"/><path d="M761 58.3L686 0L689 141.4Z" fill="#1d1d1d" stroke="#1d1d1d"/><path d="M917 470L997 491.9L981 465.9Z" fill="#1a1a1a" stroke="#1a1a1a"/><path d="M981 465.9L1067 470L992 426.7Z" fill="#252525" stroke="#252525"/><path d="M848 470L997 491.9L917 470Z" fill="#1a1a1a" stroke="#1a1a1a"/><path d="M836 470L997 491.9L848 470Z" fill="#212121" stroke="#212121"/><path d="M800 470L997 491.9L836 470Z" fill="#272727" stroke="#272727"/><path d="M602 470L997 491.9L800 470Z" fill="#252525" stroke="#252525"/><path d="M705 0L686 0L761 58.3Z" fill="#1d1d1d" stroke="#1d1d1d"/><path d="M941 0L907 48.1L962 93.3Z" fill="#1f1f1f" stroke="#1f1f1f"/><path d="M941 0L962 93.3L1040 80.3Z" fill="#1c1c1c" stroke="#1c1c1c"/><path d="M686 0L664 1.1L689 141.4Z" fill="#1a1a1a" stroke="#1a1a1a"/><path d="M686 0L662 0L664 1.1Z" fill="#1f1f1f" stroke="#1f1f1f"/><path d="M664 1.1L582 28.1L661 143.1Z" fill="#1d1d1d" stroke="#1d1d1d"/><path d="M455 293.6L506 388.9L550 314.7Z" fill="#1a1a1a" stroke="#1a1a1a"/><path d="M550 314.7L506 388.9L598 320.6Z" fill="#171717" stroke="#171717"/><path d="M1103 429.9L1054 310.7L1022 357.7Z" fill="#252525" stroke="#252525"/><path d="M1095 112.1L1040 80.3L953 133.1Z" fill="#252525" stroke="#252525"/><path d="M1040 80.3L962 93.3L968 100.1Z" fill="#242424" stroke="#242424"/><path d="M1095 112.1L953 133.1L1114 135.4Z" fill="#1a1a1a" stroke="#1a1a1a"/><path d="M506 388.9L542 470L602 470Z" fill="#212121" stroke="#212121"/><path d="M602 470L542 470L997 491.9Z" fill="#252525" stroke="#252525"/><path d="M506 388.9L529 470L542 470Z" fill="#272727" stroke="#272727"/><path d="M542 470L529 470L997 491.9Z" fill="#1c1c1c" stroke="#1c1c1c"/><path d="M662 0L582 28.1L664 1.1Z" fill="#1c1c1c" stroke="#1c1c1c"/><path d="M452 203.4L455 293.6L569 241.7Z" fill="#212121" stroke="#212121"/><path d="M997 491.9L1067 470L981 465.9Z" fill="#242424" stroke="#242424"/><path d="M997 491.9L1072 470L1067 470Z" fill="#212121" stroke="#212121"/><path d="M1067 470L1103 429.9L992 426.7Z" fill="#191919" stroke="#191919"/><path d="M452 203.4L569 241.7L557 186.4Z" fill="#252525" stroke="#252525"/><path d="M506 388.9L487 470L529 470Z" fill="#272727" stroke="#272727"/><path d="M1072 470L1103 429.9L1067 470Z" fill="#1f1f1f" stroke="#1f1f1f"/><path d="M1114 135.4L953 133.1L1075 270.6Z" fill="#252525" stroke="#252525"/><path d="M1040 80.3L1046 0L941 0Z" fill="#252525" stroke="#252525"/><path d="M1223 258.6L1137 245.4L1108 281.6Z" fill="#1c1c1c" stroke="#1c1c1c"/><path d="M1108 281.6L1137 245.4L1075 270.6Z" fill="#191919" stroke="#191919"/><path d="M582 28.1L488 109.3L557 186.4Z" fill="#242424" stroke="#242424"/><path d="M1137 245.4L1114 135.4L1075 270.6Z" fill="#1f1f1f" stroke="#1f1f1f"/><path d="M488 109.3L452 203.4L557 186.4Z" fill="#272727" stroke="#272727"/><path d="M434 429.9L487 470L506 388.9Z" fill="#1c1c1c" stroke="#1c1c1c"/><path d="M529 470L487 470L997 491.9Z" fill="#272727" stroke="#272727"/><path d="M1072 470L1124 440.9L1103 429.9Z" fill="#222222" stroke="#222222"/><path d="M1103 429.9L1124 440.9L1108 281.6Z" fill="#1f1f1f" stroke="#1f1f1f"/><path d="M431 173.6L419 277.4L452 203.4Z" fill="#1c1c1c" stroke="#1c1c1c"/><path d="M452 203.4L419 277.4L455 293.6Z" fill="#191919" stroke="#191919"/><path d="M411 357.9L434 429.9L506 388.9Z" fill="#242424" stroke="#242424"/><path d="M1065 0L1046 0L1040 80.3Z" fill="#191919" stroke="#191919"/><path d="M1065 0L1040 80.3L1117 24.1Z" fill="#1d1d1d" stroke="#1d1d1d"/><path d="M488 109.3L431 173.6L452 203.4Z" fill="#1d1d1d" stroke="#1d1d1d"/><path d="M582 28.1L534 0L488 109.3Z" fill="#1a1a1a" stroke="#1a1a1a"/><path d="M488 109.3L408 97.1L431 173.6Z" fill="#1a1a1a" stroke="#1a1a1a"/><path d="M662 0L534 0L582 28.1Z" fill="#191919" stroke="#191919"/><path d="M1117 24.1L1040 80.3L1095 112.1Z" fill="#252525" stroke="#252525"/><path d="M411 357.9L506 388.9L455 293.6Z" fill="#272727" stroke="#272727"/><path d="M399 303.6L411 357.9L455 293.6Z" fill="#272727" stroke="#272727"/><path d="M419 277.4L399 303.6L455 293.6Z" fill="#252525" stroke="#252525"/><path d="M361 326.7L399 303.6L338 267.6Z" fill="#272727" stroke="#272727"/><path d="M434 429.9L442 470L487 470Z" fill="#252525" stroke="#252525"/><path d="M487 470L442 470L997 491.9Z" fill="#1f1f1f" stroke="#1f1f1f"/><path d="M334 468.9L442 470L434 429.9Z" fill="#1c1c1c" stroke="#1c1c1c"/><path d="M399 303.6L392 318.7L411 357.9Z" fill="#272727" stroke="#272727"/><path d="M411 357.9L334 468.9L434 429.9Z" fill="#222222" stroke="#222222"/><path d="M361 326.7L392 318.7L399 303.6Z" fill="#191919" stroke="#191919"/><path d="M1143 45.3L1095 112.1L1183 117.3Z" fill="#1c1c1c" stroke="#1c1c1c"/><path d="M1143 45.3L1117 24.1L1095 112.1Z" fill="#1d1d1d" stroke="#1d1d1d"/><path d="M1183 117.3L1095 112.1L1114 135.4Z" fill="#272727" stroke="#272727"/><path d="M1137 245.4L1183 117.3L1114 135.4Z" fill="#1d1d1d" stroke="#1d1d1d"/><path d="M1252 172.4L1183 117.3L1137 245.4Z" fill="#272727" stroke="#272727"/><path d="M1117 24.1L1116 0L1065 0Z" fill="#242424" stroke="#242424"/><path d="M1143 45.3L1116 0L1117 24.1Z" fill="#252525" stroke="#252525"/><path d="M439 0L408 97.1L488 109.3Z" fill="#252525" stroke="#252525"/><path d="M338 267.6L399 303.6L419 277.4Z" fill="#1f1f1f" stroke="#1f1f1f"/><path d="M1267 326.6L1223 258.6L1108 281.6Z" fill="#222222" stroke="#222222"/><path d="M338 267.6L419 277.4L431 173.6Z" fill="#242424" stroke="#242424"/><path d="M392 318.7L361 326.7L411 357.9Z" fill="#171717" stroke="#171717"/><path d="M1072 470L1189 470L1124 440.9Z" fill="#171717" stroke="#171717"/><path d="M1124 440.9L1267 326.6L1108 281.6Z" fill="#272727" stroke="#272727"/><path d="M1199 478.9L1189 470L1072 470Z" fill="#272727" stroke="#272727"/><path d="M997 491.9L1199 478.9L1072 470Z" fill="#222222" stroke="#222222"/><path d="M1189 470L1267 326.6L1124 440.9Z" fill="#1a1a1a" stroke="#1a1a1a"/><path d="M534 0L439 0L488 109.3Z" fill="#252525" stroke="#252525"/><path d="M349 55.3L360 152.3L408 97.1Z" fill="#1d1d1d" stroke="#1d1d1d"/><path d="M408 97.1L360 152.3L431 173.6Z" fill="#191919" stroke="#191919"/><path d="M1199 478.9L1207 470L1189 470Z" fill="#1c1c1c" stroke="#1c1c1c"/><path d="M360 152.3L338 267.6L431 173.6Z" fill="#212121" stroke="#212121"/><path d="M1183 117.3L1247 3.1L1143 45.3Z" fill="#272727" stroke="#272727"/><path d="M1143 45.3L1247 3.1L1116 0Z" fill="#1f1f1f" stroke="#1f1f1f"/><path d="M1223 258.6L1252 172.4L1137 245.4Z" fill="#222222" stroke="#222222"/><path d="M1297 199.3L1252 172.4L1223 258.6Z" fill="#1c1c1c" stroke="#1c1c1c"/><path d="M1207 470L1267 326.6L1189 470Z" fill="#171717" stroke="#171717"/><path d="M306 470L334 468.9L270 428.9Z" fill="#1a1a1a" stroke="#1a1a1a"/><path d="M361 326.7L334 468.9L411 357.9Z" fill="#1c1c1c" stroke="#1c1c1c"/><path d="M442 470L306 470L997 491.9Z" fill="#242424" stroke="#242424"/><path d="M439 0L349 55.3L408 97.1Z" fill="#171717" stroke="#171717"/><path d="M360 152.3L280 172.6L338 267.6Z" fill="#212121" stroke="#212121"/><path d="M1291 379.9L1293 336.7L1267 326.6Z" fill="#171717" stroke="#171717"/><path d="M1335 264.7L1297 199.3L1223 258.6Z" fill="#272727" stroke="#272727"/><path d="M1309 403.9L1291 379.9L1207 470Z" fill="#191919" stroke="#191919"/><path d="M1207 470L1291 379.9L1267 326.6Z" fill="#1d1d1d" stroke="#1d1d1d"/><path d="M1335 264.7L1223 258.6L1267 326.6Z" fill="#171717" stroke="#171717"/><path d="M1328 92.1L1247 3.1L1183 117.3Z" fill="#1a1a1a" stroke="#1a1a1a"/><path d="M439 0L366 0L349 55.3Z" fill="#171717" stroke="#171717"/><path d="M270 428.9L334 468.9L361 326.7Z" fill="#212121" stroke="#212121"/><path d="M334 468.9L306 470L442 470Z" fill="#222222" stroke="#222222"/><path d="M265 332.7L361 326.7L338 267.6Z" fill="#272727" stroke="#272727"/><path d="M249 200.3L280 172.6L213 166.4Z" fill="#1d1d1d" stroke="#1d1d1d"/><path d="M349 55.3L280 172.6L360 152.3Z" fill="#222222" stroke="#222222"/><path d="M1329 470L1309 403.9L1207 470Z" fill="#1c1c1c" stroke="#1c1c1c"/><path d="M1291 379.9L1309 403.9L1293 336.7Z" fill="#222222" stroke="#222222"/><path d="M1293 336.7L1335 264.7L1267 326.6Z" fill="#1f1f1f" stroke="#1f1f1f"/><path d="M1328 92.1L1183 117.3L1252 172.4Z" fill="#1a1a1a" stroke="#1a1a1a"/><path d="M217 278.4L265 332.7L338 267.6Z" fill="#171717" stroke="#171717"/><path d="M1357 266.4L1335 264.7L1293 336.7Z" fill="#1c1c1c" stroke="#1c1c1c"/><path d="M1297 199.3L1328 92.1L1252 172.4Z" fill="#222222" stroke="#222222"/><path d="M265 332.7L270 428.9L361 326.7Z" fill="#1d1d1d" stroke="#1d1d1d"/><path d="M213 166.4L280 172.6L213 164.1Z" fill="#212121" stroke="#212121"/><path d="M280 172.6L249 200.3L338 267.6Z" fill="#222222" stroke="#222222"/><path d="M192 412.9L265 470L270 428.9Z" fill="#1d1d1d" stroke="#1d1d1d"/><path d="M1335 264.7L1343 195.4L1297 199.3Z" fill="#1a1a1a" stroke="#1a1a1a"/><path d="M1366 265.7L1357 266.4L1423 332.6Z" fill="#222222" stroke="#222222"/><path d="M1335 264.7L1357 266.4L1343 195.4Z" fill="#1a1a1a" stroke="#1a1a1a"/><path d="M194 394.7L270 428.9L265 332.7Z" fill="#1a1a1a" stroke="#1a1a1a"/><path d="M270 428.9L265 470L306 470Z" fill="#191919" stroke="#191919"/><path d="M306 470L265 470L997 491.9Z" fill="#212121" stroke="#212121"/><path d="M1343 195.4L1328 92.1L1297 199.3Z" fill="#1c1c1c" stroke="#1c1c1c"/><path d="M1377 135.1L1328 92.1L1343 195.4Z" fill="#222222" stroke="#222222"/><path d="M1199 478.9L1329 470L1207 470Z" fill="#1c1c1c" stroke="#1c1c1c"/><path d="M1423 332.6L1357 266.4L1293 336.7Z" fill="#1a1a1a" stroke="#1a1a1a"/><path d="M1423 332.6L1293 336.7L1309 403.9Z" fill="#1f1f1f" stroke="#1f1f1f"/><path d="M1357 266.4L1366 265.7L1343 195.4Z" fill="#191919" stroke="#191919"/><path d="M249 200.3L217 278.4L338 267.6Z" fill="#212121" stroke="#212121"/><path d="M439 0L292 -21.9L366 0Z" fill="#1d1d1d" stroke="#1d1d1d"/><path d="M366 0L292 -21.9L349 55.3Z" fill="#242424" stroke="#242424"/><path d="M249 200.3L199 209.4L217 278.4Z" fill="#272727" stroke="#272727"/><path d="M534 0L292 -21.9L439 0Z" fill="#1d1d1d" stroke="#1d1d1d"/><path d="M662 0L292 -21.9L534 0Z" fill="#191919" stroke="#191919"/><path d="M686 0L292 -21.9L662 0Z" fill="#191919" stroke="#191919"/><path d="M705 0L292 -21.9L686 0Z" fill="#1a1a1a" stroke="#1a1a1a"/><path d="M881 0L292 -21.9L705 0Z" fill="#252525" stroke="#252525"/><path d="M1500 -21.9L292 -21.9L881 0Z" fill="#1a1a1a" stroke="#1a1a1a"/><path d="M1500 -21.9L881 0L912 0Z" fill="#1d1d1d" stroke="#1d1d1d"/><path d="M1500 -21.9L912 0L941 0Z" fill="#1d1d1d" stroke="#1d1d1d"/><path d="M1500 -21.9L941 0L1046 0Z" fill="#252525" stroke="#252525"/><path d="M1500 -21.9L1046 0L1065 0Z" fill="#252525" stroke="#252525"/><path d="M1500 -21.9L1065 0L1116 0Z" fill="#1a1a1a" stroke="#1a1a1a"/><path d="M1366 265.7L1374 180.4L1343 195.4Z" fill="#171717" stroke="#171717"/><path d="M213 164.1L280 172.6L224 80.3Z" fill="#212121" stroke="#212121"/><path d="M224 80.3L280 172.6L349 55.3Z" fill="#222222" stroke="#222222"/><path d="M292 -21.9L270 0L349 55.3Z" fill="#171717" stroke="#171717"/><path d="M87 205.6L199 209.4L213 166.4Z" fill="#242424" stroke="#242424"/><path d="M213 166.4L199 209.4L249 200.3Z" fill="#191919" stroke="#191919"/><path d="M217 278.4L194 394.7L265 332.7Z" fill="#191919" stroke="#191919"/><path d="M1328 92.1L1361 0L1247 3.1Z" fill="#171717" stroke="#171717"/><path d="M1374 180.4L1377 135.1L1343 195.4Z" fill="#222222" stroke="#222222"/><path d="M292 -21.9L260 0L270 0Z" fill="#242424" stroke="#242424"/><path d="M270 0L224 80.3L349 55.3Z" fill="#1a1a1a" stroke="#1a1a1a"/><path d="M87 205.6L93 250.7L199 209.4Z" fill="#1f1f1f" stroke="#1f1f1f"/><path d="M260 0L224 80.3L270 0Z" fill="#191919" stroke="#191919"/><path d="M1374 180.4L1392 168.3L1377 135.1Z" fill="#272727" stroke="#272727"/><path d="M1411 188.6L1392 168.3L1374 180.4Z" fill="#1a1a1a" stroke="#1a1a1a"/><path d="M1411 188.6L1374 180.4L1366 265.7Z" fill="#1f1f1f" stroke="#1f1f1f"/><path d="M119 414.7L194 394.7L114 407.9Z" fill="#1c1c1c" stroke="#1c1c1c"/><path d="M224 80.3L211 78.1L213 164.1Z" fill="#171717" stroke="#171717"/><path d="M260 0L211 78.1L224 80.3Z" fill="#252525" stroke="#252525"/><path d="M183 470L192 412.9L160 470Z" fill="#252525" stroke="#252525"/><path d="M194 394.7L192 412.9L270 428.9Z" fill="#1c1c1c" stroke="#1c1c1c"/><path d="M1500 208.4L1411 188.6L1366 265.7Z" fill="#171717" stroke="#171717"/><path d="M1392 168.3L1451 172.3L1377 135.1Z" fill="#1a1a1a" stroke="#1a1a1a"/><path d="M1449 362.7L1423 332.6L1309 403.9Z" fill="#242424" stroke="#242424"/><path d="M1369 0L1328 92.1L1377 135.1Z" fill="#242424" stroke="#242424"/><path d="M1369 0L1361 0L1328 92.1Z" fill="#191919" stroke="#191919"/><path d="M1247 3.1L1500 -21.9L1116 0Z" fill="#252525" stroke="#252525"/><path d="M1449 0L1369 0L1377 135.1Z" fill="#222222" stroke="#222222"/><path d="M1361 0L1500 -21.9L1247 3.1Z" fill="#242424" stroke="#242424"/><path d="M160 470L192 412.9L119 414.7Z" fill="#252525" stroke="#252525"/><path d="M192 412.9L183 470L265 470Z" fill="#1f1f1f" stroke="#1f1f1f"/><path d="M265 470L183 470L997 491.9Z" fill="#1f1f1f" stroke="#1f1f1f"/><path d="M1500 208.4L1451 172.3L1411 188.6Z" fill="#1a1a1a" stroke="#1a1a1a"/><path d="M1329 470L1449 362.7L1309 403.9Z" fill="#252525" stroke="#252525"/><path d="M119 414.7L192 412.9L194 394.7Z" fill="#171717" stroke="#171717"/><path d="M183 470L160 470L997 491.9Z" fill="#1d1d1d" stroke="#1d1d1d"/><path d="M194 394.7L93 250.7L114 407.9Z" fill="#1d1d1d" stroke="#1d1d1d"/><path d="M1500 208.4L1366 265.7L1423 332.6Z" fill="#1f1f1f" stroke="#1f1f1f"/><path d="M1411 188.6L1451 172.3L1392 168.3Z" fill="#1f1f1f" stroke="#1f1f1f"/><path d="M194 394.7L217 278.4L93 250.7Z" fill="#1a1a1a" stroke="#1a1a1a"/><path d="M149 0L147 39.1L211 78.1Z" fill="#191919" stroke="#191919"/><path d="M211 78.1L147 39.1L213 164.1Z" fill="#252525" stroke="#252525"/><path d="M149 0L211 78.1L260 0Z" fill="#1d1d1d" stroke="#1d1d1d"/><path d="M93 250.7L217 278.4L199 209.4Z" fill="#1d1d1d" stroke="#1d1d1d"/><path d="M87 205.6L213 166.4L213 164.1Z" fill="#1c1c1c" stroke="#1c1c1c"/><path d="M292 -21.9L149 0L260 0Z" fill="#1f1f1f" stroke="#1f1f1f"/><path d="M147 39.1L87 205.6L213 164.1Z" fill="#1c1c1c" stroke="#1c1c1c"/><path d="M1500 470L1497 364.9L1449 362.7Z" fill="#1a1a1a" stroke="#1a1a1a"/><path d="M1449 362.7L1500 341.7L1423 332.6Z" fill="#242424" stroke="#242424"/><path d="M1500 343.9L1500 341.7L1449 362.7Z" fill="#242424" stroke="#242424"/><path d="M1497 364.9L1500 343.9L1449 362.7Z" fill="#212121" stroke="#212121"/><path d="M1500 341.7L1500 208.4L1423 332.6Z" fill="#252525" stroke="#252525"/><path d="M1500 136.3L1449 0L1377 135.1Z" fill="#1a1a1a" stroke="#1a1a1a"/><path d="M1497 364.9L1500 360.6L1500 343.9Z" fill="#171717" stroke="#171717"/><path d="M63 203.3L87 205.6L55 183.6Z" fill="#191919" stroke="#191919"/><path d="M1500 136.3L1377 135.1L1451 172.3Z" fill="#1f1f1f" stroke="#1f1f1f"/><path d="M1369 0L1500 -21.9L1361 0Z" fill="#252525" stroke="#252525"/><path d="M1500 208.4L1500 136.3L1451 172.3Z" fill="#242424" stroke="#242424"/><path d="M1199 478.9L1500 470L1329 470Z" fill="#1d1d1d" stroke="#1d1d1d"/><path d="M1329 470L1500 470L1449 362.7Z" fill="#1a1a1a" stroke="#1a1a1a"/><path d="M1497 364.9L1511 470L1500 360.6Z" fill="#1f1f1f" stroke="#1f1f1f"/><path d="M1511 470L1500 470L1199 478.9Z" fill="#212121" stroke="#212121"/><path d="M55 183.6L87 205.6L147 39.1Z" fill="#212121" stroke="#212121"/><path d="M87 205.6L63 203.3L93 250.7Z" fill="#191919" stroke="#191919"/><path d="M93 250.7L0 278.6L114 407.9Z" fill="#1c1c1c" stroke="#1c1c1c"/><path d="M997 491.9L1511 470L1199 478.9Z" fill="#222222" stroke="#222222"/><path d="M1500 470L1511 470L1497 364.9Z" fill="#1d1d1d" stroke="#1d1d1d"/><path d="M1500 360.6L1511 470L1500 343.9Z" fill="#1d1d1d" stroke="#1d1d1d"/><path d="M1500 343.9L1511 470L1500 341.7Z" fill="#1c1c1c" stroke="#1c1c1c"/><path d="M1500 341.7L1511 470L1500 208.4Z" fill="#1a1a1a" stroke="#1a1a1a"/><path d="M1500 208.4L1511 470L1500 136.3Z" fill="#1d1d1d" stroke="#1d1d1d"/><path d="M74 0L55 183.6L147 39.1Z" fill="#171717" stroke="#171717"/><path d="M0 233.3L0 278.6L93 250.7Z" fill="#242424" stroke="#242424"/><path d="M1511 470L1500 0L1500 136.3Z" fill="#1d1d1d" stroke="#1d1d1d"/><path d="M1500 136.3L1500 0L1449 0Z" fill="#191919" stroke="#191919"/><path d="M1449 0L1500 -21.9L1369 0Z" fill="#1d1d1d" stroke="#1d1d1d"/><path d="M1511 470L1500 -21.9L1500 0Z" fill="#252525" stroke="#252525"/><path d="M1500 0L1500 -21.9L1449 0Z" fill="#1c1c1c" stroke="#1c1c1c"/><path d="M-24 -19.9L74 0L149 0Z" fill="#212121" stroke="#212121"/><path d="M149 0L74 0L147 39.1Z" fill="#242424" stroke="#242424"/><path d="M0 233.3L63 203.3L0 225.4Z" fill="#252525" stroke="#252525"/><path d="M0 233.3L93 250.7L63 203.3Z" fill="#1a1a1a" stroke="#1a1a1a"/><path d="M114 407.9L0 470L119 414.7Z" fill="#171717" stroke="#171717"/><path d="M119 414.7L0 470L160 470Z" fill="#252525" stroke="#252525"/><path d="M0 225.4L63 203.3L55 183.6Z" fill="#1c1c1c" stroke="#1c1c1c"/><path d="M4 164.4L0 225.4L55 183.6Z" fill="#242424" stroke="#242424"/><path d="M74 0L4 164.4L55 183.6Z" fill="#222222" stroke="#222222"/><path d="M0 278.6L0 391.9L114 407.9Z" fill="#212121" stroke="#212121"/><path d="M0 391.9L0 418.7L114 407.9Z" fill="#1a1a1a" stroke="#1a1a1a"/><path d="M0 418.7L0 470L114 407.9Z" fill="#242424" stroke="#242424"/><path d="M160 470L0 470L997 491.9Z" fill="#1a1a1a" stroke="#1a1a1a"/><path d="M0 -0.9L0 0L74 0Z" fill="#272727" stroke="#272727"/><path d="M74 0L0 0L4 164.4Z" fill="#252525" stroke="#252525"/><path d="M4 164.4L-24 -19.9L0 225.4Z" fill="#1c1c1c" stroke="#1c1c1c"/><path d="M-24 -19.9L0 -0.9L74 0Z" fill="#242424" stroke="#242424"/><path d="M292 -21.9L-24 -19.9L149 0Z" fill="#1a1a1a" stroke="#1a1a1a"/><path d="M0 -0.9L-24 -19.9L0 0Z" fill="#1d1d1d" stroke="#1d1d1d"/><path d="M0 0L-24 -19.9L4 164.4Z" fill="#1d1d1d" stroke="#1d1d1d"/><path d="M0 225.4L-24 -19.9L0 233.3Z" fill="#1c1c1c" stroke="#1c1c1c"/><path d="M0 233.3L-24 -19.9L0 278.6Z" fill="#1d1d1d" stroke="#1d1d1d"/><path d="M0 278.6L-24 -19.9L0 391.9Z" fill="#1a1a1a" stroke="#1a1a1a"/><path d="M0 391.9L-24 -19.9L0 418.7Z" fill="#1c1c1c" stroke="#1c1c1c"/><path d="M0 418.7L-24 -19.9L0 470Z" fill="#1d1d1d" stroke="#1d1d1d"/></g></svg>